<?xml version="1.0" encoding="UTF-8"?>
<svg id="Layer_1" data-name="Layer 1" xmlns="http://www.w3.org/2000/svg" viewBox="0 0 293.404 336.739">
  <defs>
    <style>
      .cls-1 {
        fill: #92278f;
      }

      .cls-2 {
        fill: #ed145b;
      }

      .cls-3 {
        fill: #fff;
      }

      .cls-4 {
        fill: #f7941d;
      }

      .cls-5 {
        fill: #00a651;
      }

      .cls-6 {
        fill: #ed1b33;
      }

      .cls-7 {
        fill: #2e3192;
      }

      .cls-8 {
        fill: #8dc63f;
      }

      .cls-9 {
        fill: #0072bc;
      }

      .cls-10 {
        fill: #00a99d;
      }
    </style>
  </defs>
  <path class="cls-3" d="M289.555,257.028l-139.19,78.729c-2.316,1.31-5.15,1.31-7.466,0L3.887,257.129c-2.378-1.345-3.849-3.866-3.849-6.598L0,86.221c0-2.733,1.47-5.256,3.849-6.601L142.872.983c2.316-1.31,5.149-1.31,7.466,0l139.148,78.696c2.378,1.345,3.849,3.865,3.85,6.597l.068,164.15c.001,2.734-1.47,5.257-3.849,6.603ZM150.445,324.689l129.412-73.1c2.381-1.345,3.854-3.869,3.853-6.604l-.036-153.221c0-2.733-1.472-5.254-3.851-6.599L150.428,12.011c-2.315-1.309-5.145-1.309-7.46-.002L13.613,85.069c-2.38,1.344-3.853,3.866-3.853,6.6l-.044,153.432c0,2.737,1.474,5.262,3.858,6.607l129.418,72.984c2.314,1.305,5.141,1.304,7.454-.003Z"/>
  <path d="M280.377,85.478L149.892,11.708c-1.982-1.12-4.406-1.121-6.388-.001L13.059,85.382c-2.038,1.151-3.299,3.31-3.3,5.651l-.044,154.704c0,2.344,1.262,4.506,3.303,5.657l130.509,73.599c1.981,1.117,4.402,1.116,6.382-.002l130.501-73.715c2.039-1.152,3.3-3.313,3.299-5.655l-.036-154.493c0-2.34-1.26-4.499-3.297-5.65Z"/>
  <path class="cls-3" d="M194.79,268.837l-40.995-22.95c-4.437-2.484-9.846-2.485-14.285-.003l-41.012,22.935c-4.455,2.491-9.887,2.48-14.331-.03l-45.534-25.711c-4.601-2.598-7.443-7.475-7.435-12.759l.072-49.398c.008-5.27,2.85-10.129,7.441-12.719l40.265-22.714c4.588-2.588,7.43-7.443,7.441-12.71l.092-45.51c.011-5.257,2.842-10.105,7.416-12.697l45.516-25.792c4.478-2.538,9.961-2.535,14.437.008l45.453,25.823c4.567,2.595,7.393,7.44,7.402,12.693l.079,45.372c.009,5.268,2.85,10.124,7.438,12.713l40.46,22.833c4.594,2.592,7.436,7.457,7.438,12.732l.024,49.28c.003,5.272-2.832,10.137-7.419,12.735l-45.608,25.831c-4.45,2.52-9.892,2.534-14.354.036ZM171.251,68.8l-17.341-9.877c-4.478-2.55-9.967-2.556-14.45-.016l-17.33,9.819c-9.885,5.601-9.89,19.842-.007,25.449l17.398,9.871c4.48,2.542,9.966,2.54,14.444-.004l17.273-9.813c9.863-5.603,9.871-19.814.014-25.429ZM142.164,142.483l.052-18.102c.015-5.283-2.819-10.163-7.415-12.768l-17.62-9.986c-9.755-5.528-21.846,1.523-21.839,12.735l.011,18.196c.003,5.278,2.849,10.144,7.447,12.735l17.557,9.891c9.735,5.484,21.775-1.529,21.807-12.702ZM173.123,155.147l17.578-9.941c4.599-2.601,7.438-7.48,7.427-12.763l-.038-18.155c-.023-11.174-12.06-18.197-21.799-12.718l-17.548,9.872c-4.608,2.592-7.458,7.469-7.455,12.755l.008,18.223c.005,11.199,12.08,18.239,21.828,12.726ZM98.659,197.414l16.843-9.552c9.888-5.608,9.881-19.858-.013-25.455l-16.969-9.6c-4.441-2.513-9.87-2.529-14.327-.044l-16.996,9.478c-9.972,5.561-10.012,19.894-.071,25.511l17.122,9.674c4.472,2.527,9.943,2.522,14.411-.012ZM209.743,197.414l16.772-9.584c9.871-5.641,9.816-19.893-.099-25.456l-16.967-9.521c-4.463-2.505-9.911-2.494-14.365.027l-16.795,9.509c-9.9,5.605-9.893,19.87.013,25.465l16.99,9.596c4.487,2.534,9.977,2.521,14.451-.036ZM86.726,235.135l.069-17.353c.021-5.302-2.829-10.201-7.449-12.803l-17.473-9.842c-9.743-5.488-21.791,1.543-21.806,12.726l-.023,17.424c-.007,5.299,2.852,10.187,7.474,12.778l17.427,9.771c9.728,5.454,21.736-1.548,21.781-12.7ZM117.415,248.201l17.213-9.652c4.641-2.602,7.503-7.52,7.473-12.84l-.099-17.777c-.062-11.156-12.089-18.138-21.808-12.662l-17.132,9.653c-4.605,2.595-7.452,7.473-7.447,12.759l.019,17.775c.012,11.172,12.037,18.207,21.782,12.743ZM197.934,235.673l.086-17.816c.026-5.311-2.829-10.218-7.458-12.821l-17.534-9.858c-9.736-5.474-21.767,1.542-21.796,12.711l-.047,17.859c-.014,5.304,2.844,10.2,7.47,12.795l17.495,9.816c9.723,5.455,21.731-1.537,21.785-12.686ZM228.666,247.681l17.204-9.705c4.612-2.602,7.458-7.494,7.44-12.79l-.058-17.29c-.038-11.18-12.095-18.186-21.826-12.684l-17.226,9.739c-4.611,2.607-7.453,7.504-7.428,12.801l.08,17.256c.052,11.165,12.089,18.158,21.814,12.672Z"/>
  <path class="cls-6" d="M191.45,82.746l-44.013,25.004c-.43.244-.956.244-1.386,0l-44.212-25.085c-.949-.538-.948-1.905,0-2.443l44.157-25.019c.43-.244.957-.243,1.387.002l44.068,25.1c.946.539.945,1.903-.001,2.441Z"/>
  <path class="cls-8" d="M90.765,201.108l-44.15-24.944c-.954-.539-.95-1.915.007-2.449l44.058-24.569c.428-.239.949-.237,1.375.004l43.752,24.753c.95.537.95,1.905.001,2.443l-43.66,24.76c-.429.243-.954.244-1.383.001Z"/>
  <path class="cls-1" d="M201.834,201.144l-43.892-24.791c-.951-.537-.952-1.906-.001-2.444l43.63-24.702c.428-.242.95-.243,1.379-.003l43.83,24.596c.952.534.957,1.902.009,2.444l-43.569,24.897c-.429.245-.956.247-1.387.003Z"/>
  <path class="cls-5" d="M84.545,258.824l-43.794-24.554c-.444-.249-.718-.718-.717-1.227l.063-47.772c.001-1.073,1.158-1.748,2.093-1.222l43.921,24.738c.443.25.717.72.715,1.229l-.191,47.588c-.004,1.071-1.157,1.743-2.091,1.219Z"/>
  <path class="cls-7" d="M206.956,257.53l-.22-47.533c-.002-.508.27-.978.713-1.229l43.632-24.669c.934-.528,2.091.144,2.095,1.218l.161,47.622c.002.508-.271.978-.714,1.228l-43.573,24.58c-.933.527-2.089-.145-2.094-1.216Z"/>
  <path class="cls-2" d="M151.305,165.08l-.022-48.619c0-.507.273-.976.716-1.224l43.951-24.726c.935-.526,2.09.148,2.093,1.221l.101,48.443c.001.507-.271.975-.713,1.225l-44.03,24.901c-.936.529-2.095-.146-2.095-1.222Z"/>
  <path class="cls-4" d="M140.006,166.255l-43.934-24.752c-.441-.249-.715-.716-.715-1.222l-.03-48.628c0-1.076,1.16-1.753,2.096-1.222l44.103,24.994c.441.25.713.718.712,1.226l-.139,48.386c-.003,1.073-1.159,1.746-2.093,1.219Z"/>
  <path class="cls-9" d="M195.735,259.348l-43.854-24.605c-.444-.249-.718-.719-.717-1.228l.128-48.162c.003-1.072,1.158-1.746,2.092-1.22l43.958,24.716c.444.25.718.721.716,1.231l-.232,48.052c-.005,1.07-1.158,1.741-2.091,1.218Z"/>
  <path class="cls-10" d="M95.657,258.006l-.05-48.06c0-.507.273-.976.715-1.225l43.461-24.489c.933-.526,2.087.145,2.093,1.215l.268,48.057c.003.511-.272.983-.717,1.233l-43.679,24.492c-.935.524-2.09-.151-2.091-1.223Z"/>
</svg>